<?xml version="1.0" standalone="no"?><!DOCTYPE svg PUBLIC "-//W3C//DTD SVG 1.1//EN" "http://www.w3.org/Graphics/SVG/1.1/DTD/svg11.dtd"><svg t="1667733720030" class="icon" viewBox="0 0 1024 1024" version="1.1" xmlns="http://www.w3.org/2000/svg" p-id="2578" xmlns:xlink="http://www.w3.org/1999/xlink" width="200" height="200"><path d="M477.866667 477.866667c-10.24 0-17.066667 6.826667-17.066667 17.066666s6.826667 17.066667 17.066667 17.066667h68.266666c10.24 0 17.066667-6.826667 17.066667-17.066667s-6.826667-17.066667-17.066667-17.066666h-17.066666V290.133333c0-6.826667-3.413333-13.653333-10.24-17.066666-6.826667 0-13.653333 0-20.48 3.413333l-34.133334 34.133333c-6.826667 6.826667-6.826667 17.066667 0 23.893334s17.066667 6.826667 23.893334 0l3.413333-3.413334V477.866667H477.866667z" fill="" p-id="2579"></path><path d="M512 0C314.026667 0 153.6 160.426667 153.6 358.4c0 348.16 334.506667 648.533333 348.16 662.186667 3.413333 3.413333 6.826667 3.413333 10.24 3.413333s6.826667 0 10.24-3.413333c13.653333-13.653333 348.16-314.026667 348.16-662.186667C870.4 160.426667 709.973333 0 512 0z m0 170.666667c102.4 0 187.733333 85.333333 187.733333 187.733333S614.4 546.133333 512 546.133333s-187.733333-85.333333-187.733333-187.733333S409.6 170.666667 512 170.666667z" fill="" p-id="2580"></path><path d="M512 221.866667m-17.066667 0a17.066667 17.066667 0 1 0 34.133334 0 17.066667 17.066667 0 1 0-34.133334 0Z" fill="" p-id="2581"></path></svg>